<svg width="331" height="351" viewBox="0 0 331 351" fill="none" xmlns="http://www.w3.org/2000/svg">
<g clip-path="url(#clip0_584_1876)">
<path d="M60.9583 334.917C60.9583 334.917 67.9334 340.798 71.6044 340.431C75.2754 340.064 82.2504 340.063 79.3124 344.107C76.3744 348.151 64.2605 350.357 59.1202 350.723C53.9799 351.088 42.6033 351.458 43.3339 349.252C44.0645 347.047 44.8022 336.751 47.7388 336.021C50.6754 335.29 60.9583 334.917 60.9583 334.917Z" fill="#0B0F19"/>
<path d="M20.9242 329.144C20.9242 329.144 26.0645 336.687 29.6991 337.321C33.3337 337.954 40.0529 339.83 36.1407 342.937C32.2285 346.043 19.9657 344.905 14.9162 343.876C9.86677 342.847 -1.19354 340.138 0.105479 338.211C1.40449 336.285 4.87264 326.567 7.8991 326.649C10.9256 326.731 20.9242 329.144 20.9242 329.144Z" fill="#0B0F19"/>
<path d="M65.0415 221.274C65.0415 221.274 69.7661 253.674 68.6652 259.557C67.5643 265.44 66.8294 274.629 66.8294 274.629C66.8294 274.629 67.5634 282.347 66.8294 286.025C66.0955 289.702 62.424 337.123 62.0566 337.123C61.6892 337.123 47.3721 338.593 46.6377 337.123C45.9033 335.652 47.3721 315.066 47.3721 315.066C47.3721 315.066 48.106 297.053 48.4739 286.024C48.8419 274.996 45.1704 263.6 45.1704 263.6C44.7142 272.624 41.3683 281.26 35.628 288.231C26.0828 299.627 21.31 320.948 21.31 320.948C21.31 320.948 19.8616 325.881 20.9624 328.822C22.0633 331.763 6.62553 329.4 5.52371 328.301C4.42189 327.201 8.46031 318.008 8.46031 316.537C8.46031 315.067 15.067 283.085 25.3475 273.895L26.0819 240.443C26.0819 240.443 16.9018 216.917 26.4489 214.711C35.9959 212.504 65.0415 221.274 65.0415 221.274Z" fill="#0B0F19"/>
<path d="M58.3881 134.203C58.3881 134.203 52.146 149.643 53.6153 151.848C55.0845 154.053 35.6267 144.495 35.6267 144.495C35.6267 144.495 41.8688 129.056 41.8688 127.218C41.8688 125.38 58.3881 134.203 58.3881 134.203Z" fill="#B1B4B8"/>
<path d="M53.7992 138.063C61.3012 138.063 67.3828 131.973 67.3828 124.461C67.3828 116.949 61.3012 110.859 53.7992 110.859C46.2972 110.859 40.2156 116.949 40.2156 124.461C40.2156 131.973 46.2972 138.063 53.7992 138.063Z" fill="#B1B4B8"/>
<path d="M38.3028 138.387C40.4778 138.104 42.6889 138.382 44.7267 139.194C46.7645 140.006 48.5615 141.325 49.9476 143.028C54.7199 148.909 55.4543 150.38 55.4543 150.38C55.4543 150.38 66.8348 168.761 64.6321 177.951C64.0953 178.781 63.605 179.64 63.1638 180.524C62.4294 181.995 62.4294 202.581 63.1638 205.89C63.8981 209.199 64.6321 210.301 63.8977 215.08C63.1633 219.859 69.7685 227.578 62.0558 229.052C54.343 230.525 45.5389 220.597 37.4587 220.597C32.5137 220.51 27.788 218.538 24.2449 215.083C24.2449 215.083 26.815 201.481 27.548 199.643C28.2809 197.806 22.2361 168.372 27.548 156.634C32.8599 144.897 34.8904 142.665 34.8904 142.665C34.8904 142.665 36.1001 137.285 38.3028 138.387Z" fill="#FF5A1F"/>
<path d="M56.5523 173.17V189.344L68.3002 228.311C68.3002 228.311 76.0082 248.53 68.3002 248.53C60.5922 248.53 61.0036 229.232 61.0036 229.232L44.4356 200.005C44.4356 200.005 37.8289 176.846 38.5619 175.007C39.2949 173.169 56.5523 173.17 56.5523 173.17Z" fill="#B1B4B8"/>
<path d="M50.3112 149.275C50.3112 149.275 61.3247 153.686 58.3881 165.45C55.4515 177.213 58.3881 176.846 58.3881 176.846C58.3881 176.846 43.3362 175.375 38.5676 178.684L37.4658 174.273C37.4658 174.273 33.0609 148.907 50.3112 149.275Z" fill="#FF5A1F"/>
<path d="M59.2157 114.744C60.0635 115.045 60.9727 115.13 61.8614 114.991C62.7501 114.852 63.5904 114.494 64.3063 113.949C65.0033 113.38 65.4939 112.597 65.7029 111.721C65.9118 110.845 65.8274 109.924 65.4626 109.101C64.7598 107.72 63.2561 109.433 61.8138 108.864C58.6334 107.619 55.2834 106.861 51.877 106.618C50.2549 106.396 48.603 106.619 47.0976 107.263C46.3807 107.63 45.7579 108.163 45.0481 108.542C43.7425 109.242 42.2226 109.398 40.8115 109.848C37.8905 110.803 35.5261 110.511 34.333 113.347C33.9491 114.299 33.681 115.293 33.5343 116.309C33.1122 119.089 33.407 121.931 34.3907 124.565C35.9559 128.737 39.2378 132.385 39.4236 136.838C41.432 135.379 42.1777 132.744 43.7874 130.853C44.9851 129.455 46.621 128.505 48.4278 128.158C48.9281 128.127 50.2669 126.907 51.6907 119.971C51.9707 118.648 52.3244 117.206 53.4092 116.402C54.0851 115.969 54.8519 115.699 55.6497 115.612C57.5451 115.28 59.4646 115.105 61.3887 115.087" fill="#0B0F19"/>
<path d="M331 236.778H145.971V0H331V236.778Z" fill="#E3E3E3"/>
<path d="M324.812 232.67H182.843V4.08105H324.812V232.67Z" fill="#F8FAFC"/>
<path d="M297.653 156.632H217.002C216.187 156.632 215.527 157.293 215.527 158.109V158.11C215.527 158.926 216.187 159.587 217.002 159.587H297.653C298.468 159.587 299.129 158.926 299.129 158.11V158.109C299.129 157.293 298.468 156.632 297.653 156.632Z" fill="#FF5A1F"/>
<path d="M297.653 164.315H217.002C216.187 164.315 215.527 164.977 215.527 165.793V165.793C215.527 166.609 216.187 167.271 217.002 167.271H297.653C298.468 167.271 299.129 166.609 299.129 165.793V165.793C299.129 164.977 298.468 164.315 297.653 164.315Z" fill="#FF5A1F"/>
<path d="M297.653 171.999H217.002C216.187 171.999 215.527 172.66 215.527 173.476V173.477C215.527 174.293 216.187 174.954 217.002 174.954H297.653C298.468 174.954 299.129 174.293 299.129 173.477V173.476C299.129 172.66 298.468 171.999 297.653 171.999Z" fill="#FF5A1F"/>
<path d="M210.452 160.472C211.516 160.472 212.378 159.608 212.378 158.543C212.378 157.478 211.516 156.614 210.452 156.614C209.388 156.614 208.526 157.478 208.526 158.543C208.526 159.608 209.388 160.472 210.452 160.472Z" fill="#FF5A1F"/>
<path d="M297.653 123.524H217.002C216.187 123.524 215.527 124.186 215.527 125.002V125.002C215.527 125.818 216.187 126.48 217.002 126.48H297.653C298.468 126.48 299.129 125.818 299.129 125.002V125.002C299.129 124.186 298.468 123.524 297.653 123.524Z" fill="#E3E3E3"/>
<path d="M297.653 131.208H217.002C216.187 131.208 215.527 131.869 215.527 132.685V132.686C215.527 133.502 216.187 134.163 217.002 134.163H297.653C298.468 134.163 299.129 133.502 299.129 132.686V132.685C299.129 131.869 298.468 131.208 297.653 131.208Z" fill="#E3E3E3"/>
<path d="M297.653 138.892H217.002C216.187 138.892 215.527 139.553 215.527 140.369V140.369C215.527 141.185 216.187 141.847 217.002 141.847H297.653C298.468 141.847 299.129 141.185 299.129 140.369V140.369C299.129 139.553 298.468 138.892 297.653 138.892Z" fill="#E3E3E3"/>
<path d="M210.452 127.043C211.516 127.043 212.378 126.179 212.378 125.114C212.378 124.049 211.516 123.186 210.452 123.186C209.388 123.186 208.526 124.049 208.526 125.114C208.526 126.179 209.388 127.043 210.452 127.043Z" fill="#E3E3E3"/>
<path d="M297.653 190.062H217.002C216.187 190.062 215.527 190.723 215.527 191.539V191.539C215.527 192.355 216.187 193.017 217.002 193.017H297.653C298.468 193.017 299.129 192.355 299.129 191.539V191.539C299.129 190.723 298.468 190.062 297.653 190.062Z" fill="#E3E3E3"/>
<path d="M297.653 197.744H217.002C216.187 197.744 215.527 198.406 215.527 199.222V199.222C215.527 200.038 216.187 200.699 217.002 200.699H297.653C298.468 200.699 299.129 200.038 299.129 199.222V199.222C299.129 198.406 298.468 197.744 297.653 197.744Z" fill="#E3E3E3"/>
<path d="M297.653 205.428H217.002C216.187 205.428 215.527 206.089 215.527 206.905V206.906C215.527 207.722 216.187 208.383 217.002 208.383H297.653C298.468 208.383 299.129 207.722 299.129 206.906V206.905C299.129 206.089 298.468 205.428 297.653 205.428Z" fill="#E3E3E3"/>
<path d="M210.452 193.579C211.516 193.579 212.378 192.715 212.378 191.65C212.378 190.585 211.516 189.722 210.452 189.722C209.388 189.722 208.526 190.585 208.526 191.65C208.526 192.715 209.388 193.579 210.452 193.579Z" fill="#E3E3E3"/>
<path d="M175.745 15.9346H153.149C151.671 15.9346 150.472 17.1345 150.472 18.6147V18.6152C150.472 20.0953 151.671 21.2953 153.149 21.2953H175.745C177.223 21.2953 178.422 20.0953 178.422 18.6152V18.6147C178.422 17.1345 177.223 15.9346 175.745 15.9346Z" fill="#FF5A1F"/>
<path d="M175.745 38.585H153.149C151.671 38.585 150.472 39.7849 150.472 41.2651V41.2655C150.472 42.7457 151.671 43.9457 153.149 43.9457H175.745C177.223 43.9457 178.422 42.7457 178.422 41.2655V41.2651C178.422 39.7849 177.223 38.585 175.745 38.585Z" fill="#FF5A1F"/>
<path d="M175.745 61.2354H153.149C151.671 61.2354 150.472 62.4353 150.472 63.9155V63.9159C150.472 65.3961 151.671 66.596 153.149 66.596H175.745C177.223 66.596 178.422 65.3961 178.422 63.9159V63.9155C178.422 62.4353 177.223 61.2354 175.745 61.2354Z" fill="#FF5A1F"/>
<path d="M175.745 83.8848H153.149C151.671 83.8848 150.472 85.0847 150.472 86.5649V86.5654C150.472 88.0455 151.671 89.2455 153.149 89.2455H175.745C177.223 89.2455 178.422 88.0455 178.422 86.5654V86.5649C178.422 85.0847 177.223 83.8848 175.745 83.8848Z" fill="#FF5A1F"/>
<path d="M175.745 106.535H153.149C151.671 106.535 150.472 107.735 150.472 109.215V109.216C150.472 110.696 151.671 111.896 153.149 111.896H175.745C177.223 111.896 178.422 110.696 178.422 109.216V109.215C178.422 107.735 177.223 106.535 175.745 106.535Z" fill="#FF5A1F"/>
<path d="M145.971 29.9396C145.971 30.4487 146.135 30.8578 146.34 30.8578H330.63C330.836 30.8578 331 30.4487 331 29.9396C331 29.4306 330.836 29.0215 330.63 29.0215H146.34C146.135 29.0215 145.971 29.4301 145.971 29.9396Z" fill="#E3E3E3"/>
<path d="M145.971 52.59C145.971 53.0991 146.135 53.5082 146.34 53.5082H330.63C330.836 53.5082 331 53.0991 331 52.59C331 52.081 330.836 51.6719 330.63 51.6719H146.34C146.135 51.6719 145.971 52.0805 145.971 52.59Z" fill="#E3E3E3"/>
<path d="M145.971 75.2404C145.971 75.7494 146.135 76.1586 146.34 76.1586H330.63C330.836 76.1586 331 75.7494 331 75.2404C331 74.7314 330.836 74.3223 330.63 74.3223H146.34C146.135 74.3223 145.971 74.7309 145.971 75.2404Z" fill="#E3E3E3"/>
<path d="M145.971 97.8908C145.971 98.3998 146.135 98.809 146.34 98.809H330.63C330.836 98.809 331 98.3998 331 97.8908C331 97.3818 330.836 96.9727 330.63 96.9727H146.34C146.135 96.9727 145.971 97.3813 145.971 97.8908Z" fill="#E3E3E3"/>
<path d="M297.653 85.0879H217.002C216.187 85.0879 215.527 85.7493 215.527 86.5653V86.5657C215.527 87.3817 216.187 88.0431 217.002 88.0431H297.653C298.468 88.0431 299.129 87.3817 299.129 86.5657V86.5653C299.129 85.7493 298.468 85.0879 297.653 85.0879Z" fill="#E3E3E3"/>
<path d="M297.653 62.4375H217.002C216.187 62.4375 215.527 63.0989 215.527 63.9149V63.9153C215.527 64.7313 216.187 65.3927 217.002 65.3927H297.653C298.468 65.3927 299.129 64.7313 299.129 63.9153V63.9149C299.129 63.0989 298.468 62.4375 297.653 62.4375Z" fill="#E3E3E3"/>
<path d="M297.653 39.7871H217.002C216.187 39.7871 215.527 40.4486 215.527 41.2645V41.265C215.527 42.0809 216.187 42.7423 217.002 42.7423H297.653C298.468 42.7423 299.129 42.0809 299.129 41.265V41.2645C299.129 40.4486 298.468 39.7871 297.653 39.7871Z" fill="#E3E3E3"/>
<path d="M297.653 14.457H217.002C216.187 14.457 215.527 15.1185 215.527 15.9344V15.9349C215.527 16.7508 216.187 17.4123 217.002 17.4123H297.653C298.468 17.4123 299.129 16.7508 299.129 15.9349V15.9344C299.129 15.1185 298.468 14.457 297.653 14.457Z" fill="#E3E3E3"/>
</g>
<defs>
<clipPath id="clip0_584_1876">
<rect width="331" height="351" fill="white"/>
</clipPath>
</defs>
</svg>
