<svg width="265" height="351" viewBox="0 0 265 351" fill="none" xmlns="http://www.w3.org/2000/svg">
<g clip-path="url(#clip0_584_1830)">
<path d="M216.207 282.35C216.029 282.551 215.852 282.758 215.68 282.965C213.277 285.754 211.106 288.735 209.188 291.878C209.034 292.119 208.884 292.365 208.747 292.606C204.208 300.2 201.119 308.57 199.635 317.292C199.302 319.265 199.052 321.25 198.884 323.245C198.764 324.782 198.69 326.321 198.665 327.862C198.573 334.332 199.147 341.53 194.977 346.474C193.863 347.775 192.503 348.843 190.975 349.617C189.824 350.213 188.607 350.673 187.35 350.988H174.352C173.699 350.891 173.045 350.788 172.391 350.684C172.374 350.684 172.357 350.679 172.339 350.679L172.208 350.723L171.422 350.986L171.388 350.997V350.986C171.389 350.963 171.387 350.94 171.382 350.917C171.383 350.875 171.381 350.832 171.376 350.791V350.785C171.371 350.67 171.365 350.561 171.365 350.447L171.348 350.143C171.348 350.143 171.342 350.137 171.348 350.137C171.342 349.965 171.331 349.793 171.325 349.615C170.723 334.645 172.191 319.176 179.256 305.995C181.678 301.48 184.798 297.375 188.499 293.832C188.52 293.809 188.543 293.788 188.568 293.769C195.913 286.76 205.409 282.177 215.433 282.332C215.691 282.333 215.949 282.339 216.207 282.35Z" fill="#B1B4B8"/>
<path d="M216.236 282.675C204.884 288.503 195.655 297.76 189.862 309.132C188.572 311.558 187.672 314.172 187.195 316.878C186.816 319.53 187.153 322.234 188.173 324.711C189.077 327.039 190.271 329.318 190.593 331.824C190.739 333.11 190.612 334.412 190.219 335.645C189.827 336.879 189.178 338.015 188.315 338.98C186.229 341.44 183.383 343.004 180.547 344.436C177.398 346.026 174.102 347.628 171.916 350.503C171.653 350.852 171.127 350.42 171.39 350.072C175.194 345.071 181.893 343.979 186.455 339.912C188.584 338.014 190.154 335.463 189.977 332.525C189.822 329.955 188.592 327.606 187.656 325.256C186.627 322.855 186.201 320.238 186.415 317.633C186.753 314.912 187.551 312.267 188.775 309.813C191.444 304.244 194.971 299.13 199.228 294.657C204.058 289.525 209.731 285.258 216 282.039C216.388 281.84 216.621 282.478 216.236 282.676L216.236 282.675Z" fill="#F8FAFC"/>
<path d="M191.512 305.359C189.737 304.127 188.456 302.305 187.9 300.217C187.344 298.129 187.548 295.911 188.476 293.959C188.665 293.565 189.286 293.84 189.097 294.235C188.23 296.051 188.04 298.117 188.562 300.061C189.084 302.004 190.283 303.697 191.943 304.833C192.304 305.08 191.871 305.602 191.512 305.359Z" fill="#F8FAFC"/>
<path d="M187.559 323.589C191.911 322.84 195.822 320.478 198.511 316.974C198.777 316.626 199.301 317.058 199.037 317.405C196.233 321.046 192.158 323.496 187.627 324.265C187.195 324.338 187.13 323.661 187.56 323.589H187.559Z" fill="#F8FAFC"/>
<path d="M204.415 290.35C205.003 290.97 205.736 291.434 206.548 291.701C207.359 291.967 208.224 292.028 209.065 291.877C209.496 291.799 209.56 292.476 209.132 292.554C208.202 292.716 207.247 292.647 206.351 292.355C205.454 292.063 204.642 291.555 203.986 290.876C203.919 290.818 203.877 290.736 203.868 290.647C203.859 290.558 203.885 290.469 203.939 290.398C203.996 290.329 204.079 290.285 204.168 290.276C204.258 290.267 204.347 290.294 204.417 290.351L204.415 290.35Z" fill="#F8FAFC"/>
<path d="M247.869 323.853C247.605 323.911 247.342 323.968 247.072 324.031H247.066C243.472 324.812 239.948 325.882 236.526 327.231C236.263 327.334 236 327.438 235.737 327.547H235.731C227.575 330.868 220.102 335.667 213.688 341.702C213.665 341.725 213.644 341.742 213.619 341.765C213.606 341.781 213.591 341.796 213.575 341.809L213.547 341.838C211 344.249 208.638 346.85 206.482 349.617C206.482 349.623 206.476 349.628 206.471 349.634C206.127 350.082 205.777 350.529 205.433 350.988H171.422L171.388 350.999V350.988H171.244C171.244 350.982 171.25 350.976 171.256 350.971C171.261 350.965 171.261 350.965 171.261 350.959C171.301 350.902 171.342 350.844 171.376 350.793V350.787C171.385 350.771 171.396 350.756 171.41 350.743C171.444 350.686 171.485 350.64 171.513 350.588C171.743 350.267 171.966 349.94 172.196 349.619C172.569 349.086 172.947 348.552 173.331 348.025C173.331 348.023 173.331 348.022 173.331 348.021C173.332 348.02 173.334 348.02 173.335 348.021V348.015C173.341 348.009 173.341 348.004 173.346 347.998L173.358 347.987C178.089 341.437 183.41 335.219 189.506 330.011C189.689 329.851 189.873 329.69 190.067 329.541C192.828 327.205 195.776 325.101 198.881 323.249C200.577 322.245 202.326 321.324 204.128 320.485C208.773 318.344 213.724 316.947 218.802 316.344H218.814C218.825 316.344 218.837 316.338 218.854 316.338C218.871 316.338 218.882 316.333 218.894 316.333C228.992 315.162 239.343 317.221 247.262 323.381C247.471 323.538 247.666 323.693 247.869 323.853Z" fill="#B1B4B8"/>
<path d="M171.244 350.988H171.387V350.999L171.421 350.988H180.522C177.81 350.523 175.103 350.162 172.39 350.684C172.327 350.695 172.27 350.707 172.207 350.724C171.932 350.775 171.657 350.844 171.382 350.919C171.364 350.925 171.341 350.93 171.324 350.936C171.299 350.943 171.276 350.954 171.255 350.97C171.241 350.972 171.227 350.978 171.215 350.987L171.244 350.988Z" fill="#F8FAFC"/>
<path d="M247.7 324.134C247.488 324.1 247.281 324.06 247.069 324.031H247.063C242.639 323.31 238.148 323.083 233.674 323.354C233.45 323.366 233.221 323.383 232.991 323.394C226.781 323.828 220.674 325.219 214.888 327.518C214.882 327.518 214.882 327.518 214.882 327.524C214.819 327.547 214.756 327.568 214.699 327.593C213.352 328.138 212.023 328.734 210.72 329.377C208.229 330.537 205.936 332.082 203.924 333.954C202.314 335.544 201.095 337.486 200.363 339.627C200.289 339.846 200.214 340.057 200.144 340.275C200.092 340.447 200.041 340.626 199.989 340.797C199.312 343.2 198.893 345.735 197.644 347.932C197.296 348.545 196.872 349.111 196.382 349.618C195.876 350.144 195.306 350.605 194.685 350.989H193.241C194.032 350.647 194.765 350.184 195.414 349.618C195.919 349.182 196.361 348.678 196.727 348.121C198.15 345.976 198.586 343.36 199.251 340.923C199.359 340.528 199.474 340.143 199.601 339.758C200.263 337.655 201.373 335.72 202.853 334.086C204.76 332.116 206.988 330.485 209.441 329.262C210.99 328.447 212.58 327.709 214.212 327.048C214.424 326.956 214.636 326.876 214.849 326.796C225.156 322.784 236.348 321.603 247.265 323.378C247.478 323.406 247.684 323.446 247.896 323.481C248.325 323.555 248.13 324.209 247.7 324.134Z" fill="#F8FAFC"/>
<path d="M214.307 327.357C213.63 325.304 213.705 323.079 214.518 321.076C215.33 319.074 216.828 317.426 218.744 316.427C219.132 316.226 219.462 316.821 219.073 317.021C217.288 317.948 215.893 319.483 215.14 321.349C214.387 323.215 214.325 325.289 214.967 327.197C215.106 327.611 214.445 327.767 214.307 327.357Z" fill="#F8FAFC"/>
<path d="M200.176 339.532C204.102 341.556 208.646 342.025 212.902 340.846C213.324 340.729 213.484 341.39 213.063 341.506C208.631 342.725 203.903 342.227 199.822 340.112C199.434 339.911 199.789 339.331 200.176 339.532Z" fill="#F8FAFC"/>
<path d="M233.642 323.144C233.739 323.993 234.044 324.804 234.532 325.505C235.019 326.207 235.673 326.776 236.435 327.162C236.826 327.359 236.47 327.938 236.081 327.742C235.241 327.312 234.52 326.682 233.98 325.909C233.44 325.135 233.097 324.241 232.982 323.304C232.964 323.217 232.98 323.126 233.026 323.05C233.073 322.973 233.146 322.918 233.232 322.894C233.32 322.873 233.412 322.888 233.489 322.935C233.566 322.981 233.621 323.057 233.642 323.144Z" fill="#F8FAFC"/>
<path d="M214.033 95.3764C214.188 76.3859 214.96 57.2125 216.35 37.8563C216.373 37.472 216.402 37.0933 216.43 36.709C217.164 26.6315 218.062 16.5177 219.125 6.36768V6.3102C219.124 4.63718 218.459 3.03294 217.277 1.84993C216.094 0.666924 214.49 0.00190654 212.817 0.000976562H43.655C41.988 0.00418131 40.3899 0.665959 39.2084 1.84222C38.027 3.01848 37.358 4.61396 37.3471 6.28124C35.8791 20.2589 34.7284 34.1673 33.8949 48.0064C33.8607 48.4596 33.8375 48.9067 33.8147 49.3599C33.4017 56.2024 33.073 63.0277 32.8286 69.8359C32.8115 70.2374 32.7943 70.6389 32.7882 71.0403C31.2228 112.813 32.7468 154.644 37.3476 196.191C37.3598 197.857 38.0295 199.451 39.2108 200.626C40.3921 201.801 41.9895 202.462 43.6554 202.465H212.817C214.49 202.464 216.094 201.799 217.277 200.616C218.459 199.433 219.124 197.829 219.125 196.156V196.093C218.294 188.711 217.564 181.282 216.935 173.804C216.843 172.709 216.753 171.613 216.665 170.518C216.229 165.132 215.849 159.725 215.525 154.298C215.456 153.202 215.393 152.107 215.336 151.011C214.722 140.148 214.32 129.2 214.132 118.169C214.109 117.072 214.092 115.984 214.074 114.882C214.005 109.497 213.984 104.09 214.011 98.6623C214.01 97.5676 214.016 96.472 214.033 95.3764Z" fill="#B1B4B8"/>
<path d="M265.001 43.0172C265 41.3442 264.335 39.7401 263.152 38.5571C261.969 37.3741 260.365 36.7091 258.693 36.708H89.53C87.863 36.7112 86.2648 37.373 85.0834 38.5493C83.902 39.7255 83.233 41.321 83.2221 42.9883C77.5109 97.4591 76.5647 150.965 80.3893 202.466C80.8537 208.838 81.3966 215.178 82.018 221.485C82.3505 224.863 82.7041 228.232 83.0787 231.591C83.1226 232.027 83.1704 232.463 83.2221 232.899C83.2344 234.565 83.904 236.159 85.0853 237.334C86.2666 238.509 87.864 239.17 89.53 239.173H258.693C260.365 239.172 261.969 238.507 263.152 237.324C264.335 236.141 265 234.537 265.001 232.864V232.801C258.158 172.136 258.158 108.305 265.001 43.0738V43.0172Z" fill="#F8FAFC"/>
<path d="M265.001 43.0172C265 41.3442 264.335 39.7401 263.152 38.5571C261.969 37.3741 260.365 36.7091 258.693 36.708H89.53C87.863 36.7112 86.2648 37.373 85.0834 38.5493C83.902 39.7255 83.233 41.321 83.2221 42.9883C77.5109 97.4591 76.5647 150.965 80.3893 202.466C80.8537 208.838 81.3966 215.178 82.018 221.485C82.3505 224.863 82.7041 228.232 83.0787 231.591C83.1226 232.027 83.1704 232.463 83.2221 232.899C83.2344 234.565 83.904 236.159 85.0853 237.334C86.2666 238.509 87.864 239.17 89.53 239.173H258.693C260.365 239.172 261.969 238.507 263.152 237.324C264.335 236.141 265 234.537 265.001 232.864V232.801C258.158 172.136 258.158 108.305 265.001 43.0738V43.0172ZM263.853 232.899C263.843 234.262 263.295 235.566 262.329 236.526C261.362 237.486 260.055 238.026 258.693 238.027H89.53C88.1619 238.025 86.8505 237.481 85.8831 236.513C84.9157 235.545 84.3713 234.234 84.3692 232.865V232.802C84.3289 232.435 84.2889 232.062 84.2486 231.695C83.8529 228.185 83.484 224.665 83.1419 221.136C82.5397 214.947 82.0065 208.724 81.5421 202.467C77.7175 150.996 78.6575 97.5231 84.3692 43.0752V43.0177C84.3713 41.6493 84.9157 40.3376 85.8831 39.37C86.8505 38.4024 88.1619 37.8579 89.53 37.8558H258.693C260.056 37.8562 261.364 38.3963 262.331 39.3581C263.298 40.3199 263.845 41.6252 263.853 42.9892C257.012 108.271 257.012 172.171 263.853 232.899Z" fill="#E3E3E3"/>
<path d="M101.19 95.377C100.754 95.377 100.336 95.5502 100.028 95.8585C99.7198 96.1668 99.5466 96.5849 99.5466 97.021C99.5466 97.457 99.7198 97.8751 100.028 98.1834C100.336 98.4917 100.754 98.6649 101.19 98.6649H238.66C239.096 98.6649 239.514 98.4917 239.822 98.1834C240.13 97.8751 240.303 97.457 240.303 97.021C240.303 96.5849 240.13 96.1668 239.822 95.8585C239.514 95.5502 239.096 95.377 238.66 95.377H101.19Z" fill="#E3E3E3"/>
<path d="M101.19 105.242C100.754 105.242 100.336 105.415 100.028 105.724C99.7198 106.032 99.5466 106.45 99.5466 106.886C99.5466 107.322 99.7198 107.74 100.028 108.049C100.336 108.357 100.754 108.53 101.19 108.53H194.513C194.949 108.53 195.367 108.357 195.675 108.049C195.984 107.74 196.157 107.322 196.157 106.886C196.157 106.45 195.984 106.032 195.675 105.724C195.367 105.415 194.949 105.242 194.513 105.242H101.19Z" fill="#E3E3E3"/>
<path d="M101.19 114.884C100.974 114.884 100.761 114.926 100.561 115.009C100.362 115.092 100.181 115.213 100.028 115.365C99.8754 115.518 99.7543 115.699 99.6717 115.899C99.5891 116.098 99.5466 116.312 99.5466 116.528C99.5466 116.744 99.5891 116.957 99.6717 117.157C99.7543 117.356 99.8754 117.538 100.028 117.69C100.181 117.843 100.362 117.964 100.561 118.047C100.761 118.129 100.974 118.172 101.19 118.172H238.66C239.096 118.172 239.514 117.999 239.822 117.69C240.13 117.382 240.303 116.964 240.303 116.528C240.303 116.092 240.13 115.674 239.822 115.365C239.514 115.057 239.096 114.884 238.66 114.884H101.19Z" fill="#E3E3E3"/>
<path d="M101.19 124.748C100.754 124.748 100.336 124.921 100.028 125.23C99.7198 125.538 99.5466 125.956 99.5466 126.392C99.5466 126.828 99.7198 127.246 100.028 127.555C100.336 127.863 100.754 128.036 101.19 128.036H194.513C194.949 128.036 195.367 127.863 195.675 127.555C195.984 127.246 196.157 126.828 196.157 126.392C196.157 125.956 195.984 125.538 195.675 125.23C195.367 124.921 194.949 124.748 194.513 124.748H101.19Z" fill="#E3E3E3"/>
<path d="M101.19 151.012C100.754 151.012 100.336 151.185 100.028 151.493C99.7198 151.802 99.5466 152.22 99.5466 152.656C99.5466 153.092 99.7198 153.51 100.028 153.818C100.336 154.126 100.754 154.3 101.19 154.3H238.66C239.096 154.3 239.514 154.126 239.822 153.818C240.13 153.51 240.303 153.092 240.303 152.656C240.303 152.22 240.13 151.802 239.822 151.493C239.514 151.185 239.096 151.012 238.66 151.012H101.19Z" fill="#E3E3E3"/>
<path d="M101.19 160.877C100.974 160.877 100.761 160.919 100.561 161.002C100.362 161.085 100.181 161.206 100.028 161.358C99.8754 161.511 99.7543 161.692 99.6717 161.892C99.5891 162.091 99.5466 162.305 99.5466 162.521C99.5466 162.737 99.5891 162.951 99.6717 163.15C99.7543 163.35 99.8754 163.531 100.028 163.683C100.181 163.836 100.362 163.957 100.561 164.04C100.761 164.122 100.974 164.165 101.19 164.165H194.513C194.949 164.165 195.367 163.992 195.675 163.683C195.984 163.375 196.157 162.957 196.157 162.521C196.157 162.085 195.984 161.667 195.675 161.358C195.367 161.05 194.949 160.877 194.513 160.877H101.19Z" fill="#E3E3E3"/>
<path d="M101.19 170.519C100.754 170.519 100.336 170.692 100.028 171C99.7198 171.308 99.5466 171.727 99.5466 172.163C99.5466 172.599 99.7198 173.017 100.028 173.325C100.336 173.633 100.754 173.807 101.19 173.807H238.66C239.096 173.807 239.514 173.633 239.822 173.325C240.13 173.017 240.303 172.599 240.303 172.163C240.303 171.727 240.13 171.308 239.822 171C239.514 170.692 239.096 170.519 238.66 170.519H101.19Z" fill="#E3E3E3"/>
<path d="M101.19 180.384C100.754 180.384 100.336 180.557 100.028 180.865C99.7198 181.174 99.5466 181.592 99.5466 182.028C99.5466 182.464 99.7198 182.882 100.028 183.19C100.336 183.499 100.754 183.672 101.19 183.672H194.513C194.949 183.672 195.367 183.499 195.675 183.19C195.984 182.882 196.157 182.464 196.157 182.028C196.157 181.592 195.984 181.174 195.675 180.865C195.367 180.557 194.949 180.384 194.513 180.384H101.19Z" fill="#E3E3E3"/>
<path d="M128.39 74.9639H102.134C101.794 74.9635 101.468 74.8282 101.227 74.5877C100.987 74.3472 100.851 74.0211 100.851 73.681V69.4733C100.851 69.1332 100.987 68.8071 101.227 68.5666C101.468 68.3261 101.794 68.1908 102.134 68.1904H128.39C128.73 68.1908 129.056 68.3261 129.297 68.5666C129.537 68.8071 129.673 69.1332 129.673 69.4733V73.681C129.672 74.0211 129.537 74.3471 129.297 74.5876C129.056 74.8281 128.73 74.9634 128.39 74.9639Z" fill="#FF5A1F"/>
<path d="M219.605 210.309L211.563 212.968L207.542 214.297C206.3 214.706 204.957 215.192 203.628 215.016C202.709 214.894 201.662 214.365 201.376 213.42C201.106 212.526 201.679 211.59 202.375 211.062C204.294 209.601 206.72 211.088 208.08 212.6C209.744 214.45 210.685 216.838 212.245 218.774C213.634 220.51 215.394 221.913 217.397 222.878C221.377 224.758 226.232 224.558 229.782 221.819C234.021 218.548 234.454 212.879 234.476 207.933C234.469 207.71 234.375 207.498 234.214 207.342C234.054 207.187 233.839 207.1 233.616 207.1C233.392 207.1 233.177 207.187 233.017 207.342C232.856 207.498 232.763 207.71 232.755 207.933C232.735 212.416 232.48 217.91 228.394 220.715C224.48 223.402 219.335 222.689 215.732 219.827C213.724 218.231 212.488 216.151 211.17 213.997C209.883 211.894 208.285 209.856 205.862 209.039C204.823 208.661 203.686 208.654 202.643 209.019C201.599 209.383 200.714 210.097 200.136 211.039C199.872 211.483 199.706 211.979 199.648 212.493C199.591 213.007 199.643 213.527 199.803 214.019C199.962 214.511 200.224 214.963 200.572 215.346C200.919 215.729 201.344 216.033 201.818 216.239C204.626 217.578 207.84 216.009 210.544 215.115L220.063 211.969C221.109 211.624 220.661 209.961 219.605 210.31L219.605 210.309Z" fill="#FF5A1F"/>
<path d="M226.614 350.3C226.617 350.679 226.03 350.987 225.303 350.989H1.31694C0.589651 350.989 0.000976562 350.682 0.000976562 350.303C0.000976562 349.925 0.590528 349.618 1.31694 349.618H225.303C226.026 349.618 226.612 349.925 226.614 350.3Z" fill="#E3E3E3"/>
<path d="M88.9447 0C88.0424 16.0407 82.1473 31.3975 72.0848 43.9203C62.0223 56.443 48.2962 65.5046 32.8285 69.8363C32.8114 70.2377 32.7943 70.6392 32.7886 71.0406C48.5764 66.6962 62.6011 57.5014 72.8827 44.7546C83.1643 32.0078 89.1833 16.3528 90.09 0H88.9447Z" fill="#F8FAFC"/>
<path d="M71.3814 0C68.7166 10.1271 64.019 19.6059 57.5746 27.8591C51.1302 36.1123 43.0739 42.9673 33.8962 48.0067C33.862 48.4599 33.8387 48.907 33.8159 49.3603C43.327 44.2477 51.6787 37.2239 58.3471 28.7297C65.0154 20.2355 69.8562 10.4543 72.5658 0H71.3814Z" fill="#F8FAFC"/>
<path d="M44.3662 214.46L40.1225 212.244L40.1703 209.431C40.6917 208.282 41.0932 207.082 41.3684 205.851C39.6525 204.872 38.3164 203.344 37.5758 201.513C36.8351 199.681 36.7331 197.654 37.2861 195.757C37.8392 193.86 39.0151 192.205 40.6241 191.059C42.2331 189.913 44.1812 189.343 46.1541 189.44C48.1269 189.537 50.0094 190.297 51.4977 191.596C52.9859 192.895 53.9931 194.657 54.3567 196.599C54.7203 198.541 54.419 200.549 53.5016 202.298C52.5841 204.048 51.104 205.437 49.3 206.242C49.1203 207.01 48.2806 210.968 49.1968 213.873L44.3662 214.46Z" fill="#B1B4B8"/>
<path d="M45.3684 200.147C46.43 200.137 47.0672 198.959 47.2931 197.921C47.519 196.884 47.6361 195.696 48.4678 195.035C49.6044 194.133 51.312 194.786 52.6954 194.346C54.2571 193.85 55.0593 192.008 54.9132 190.376C54.7672 188.743 53.9035 187.275 53.0602 185.87L53.1005 187.758C53.0416 187.124 52.8211 186.516 52.4601 185.992C52.0991 185.468 51.6097 185.046 51.0387 184.765L51.7052 187.45C51.5917 187.083 51.4069 186.741 51.1612 186.446C50.9155 186.15 50.6139 185.906 50.2736 185.727C49.9333 185.548 49.561 185.438 49.1781 185.403C48.7953 185.369 48.4093 185.41 48.0424 185.525L48.314 187.143C46.4336 187.118 44.5557 187.289 42.7107 187.653C40.8532 188.024 39.158 188.966 37.8622 190.348C36.0174 192.468 35.6741 195.584 36.3196 198.318C36.9652 201.053 38.4801 203.499 40.0257 205.846C40.4148 206.436 40.93 207.092 41.6368 207.075C41.9526 207.035 42.246 206.891 42.4709 206.665C42.6959 206.44 42.8396 206.146 42.8794 205.83C42.943 205.195 42.847 204.553 42.6 203.964C42.2249 203.079 42.0118 202.134 41.9709 201.173C42.004 200.214 42.5482 199.193 43.4743 198.947C44.4005 198.7 45.5189 199.642 45.1824 200.542L45.3684 200.147Z" fill="#0B0F19"/>
<path d="M76.1535 219.438C78.1713 217.382 80.8713 216.758 82.1793 218.044C83.4874 219.33 82.9101 222.036 80.8892 224.095C80.0933 224.928 79.1096 225.557 78.0204 225.932L69.3522 234.535L65.4043 230.38L74.3691 222.34C74.7237 221.244 75.3356 220.249 76.1535 219.438Z" fill="#B1B4B8"/>
<path d="M48.4311 212.336L57.5196 232.503L72.0329 224.645L77.227 227.402C77.227 227.402 65.3627 247.241 57.2393 244.983C49.1158 242.725 34.6924 222.247 37.2897 215.927C39.887 209.607 48.4315 212.336 48.4315 212.336L48.4311 212.336Z" fill="#FF5A1F"/>
<path d="M44.4453 346.741H51.0725L54.2251 321.174H44.4431L44.4453 346.741Z" fill="#B1B4B8"/>
<path d="M67.1506 346.591C67.36 347.193 67.4666 347.827 67.466 348.465C67.466 349.061 67.229 349.634 66.8072 350.056C66.3853 350.477 65.8132 350.715 65.2166 350.715H44.6932C44.2861 350.715 43.8956 350.553 43.6076 350.265C43.3197 349.977 43.158 349.586 43.158 349.179V348.324C43.158 348.324 42.1425 345.756 44.2331 342.59C44.2331 342.59 46.8308 345.069 50.7129 341.186L51.8578 339.111L60.1444 345.173L64.7376 345.739C65.7425 345.862 66.6334 345.719 67.1502 346.59L67.1506 346.591Z" fill="#0B0F19"/>
<path d="M62.8473 272.748L53.7145 334.903H42.2573L43.7808 299.424L44.5826 280.768L42.2578 271.889C41.5194 270.474 40.8671 269.016 40.3044 267.522C39.2977 264.822 38.5024 261.585 39.6829 260.05C40.1171 259.484 41.2462 259.066 42.7811 258.754C43.8418 258.547 44.9124 258.395 45.9885 258.297C52.764 257.627 62.4012 258.045 62.4012 258.045L62.6464 266.132L62.7824 270.647L62.8473 272.748Z" fill="#0B0F19"/>
<path d="M6.71338 336.838L12.5501 339.974L27.4266 318.945L18.8102 314.314L6.71338 336.838Z" fill="#B1B4B8"/>
<path d="M26.7861 347.455C26.6853 348.085 26.4795 348.693 26.1772 349.254C25.8949 349.78 25.4153 350.172 24.8441 350.344C24.2729 350.516 23.6567 350.454 23.1312 350.171L5.05208 340.455C4.69375 340.262 4.4266 339.935 4.30931 339.545C4.19202 339.156 4.23419 338.735 4.42656 338.377L4.831 337.624C4.831 337.624 5.15209 334.88 8.49157 333.081C8.49157 333.081 9.60707 336.495 14.8639 334.912L16.8536 333.626L21.2841 342.889L25.0626 345.561C25.8895 346.146 26.7418 346.442 26.7852 347.454L26.7861 347.455Z" fill="#0B0F19"/>
<path d="M62.7821 270.648L57.9371 280.368L43.7813 299.426L20.4795 330.797L10.387 325.376L38.0498 278.789L40.2058 269.864C40.2058 269.864 40.2058 268.899 40.3036 267.523C40.4953 264.798 41.07 260.456 42.7803 258.755C42.9977 258.531 43.2543 258.349 43.5374 258.217C44.0519 257.986 44.9073 258.042 45.9873 258.298C50.4997 259.376 58.921 264.008 62.6452 266.133L62.7821 270.648Z" fill="#0B0F19"/>
<path d="M39.3484 206.695L50.4845 212.042C50.4845 212.042 62.2891 247.018 62.2891 248.8C62.2891 250.583 64.2938 263.117 62.2891 265.122C60.2845 267.127 44.4613 268.638 42.3176 267.848C36.405 265.669 36.8257 256.967 36.23 253.033C35.6343 249.099 33.7564 236.11 34.5359 224.525C35.3154 212.941 39.3484 206.695 39.3484 206.695Z" fill="#FF5A1F"/>
<path d="M73.2825 237.517C76.0461 236.7 78.7078 237.464 79.2272 239.224C79.7466 240.983 77.927 243.071 75.1622 243.888C74.0622 244.229 72.8965 244.302 71.7626 244.101L60.0067 247.413L58.5701 241.863L70.3102 239.187C71.1529 238.401 72.1715 237.828 73.2808 237.517L73.2825 237.517Z" fill="#B1B4B8"/>
<path d="M52.493 217.844L50.6507 239.889L67.1529 240.064L70.3551 244.997C70.3551 244.997 50.3524 256.579 44.3477 250.661C38.3429 244.743 35.6698 219.835 41.0091 215.572C46.3484 211.308 52.493 217.844 52.493 217.844Z" fill="#FF5A1F"/>
</g>
<defs>
<clipPath id="clip0_584_1830">
<rect width="265" height="351" fill="white"/>
</clipPath>
</defs>
</svg>
