<svg width="323" height="351" viewBox="0 0 323 351" fill="none" xmlns="http://www.w3.org/2000/svg">
<g clip-path="url(#clip0_584_1768)">
<path d="M265.659 146.068L252.496 150.388V131.471H264.434L265.659 146.068Z" fill="#B1B4B8"/>
<path d="M254.125 136.705C261.367 136.705 267.238 130.842 267.238 123.609C267.238 116.375 261.367 110.512 254.125 110.512C246.884 110.512 241.013 116.375 241.013 123.609C241.013 130.842 246.884 136.705 254.125 136.705Z" fill="#B1B4B8"/>
<path d="M257.464 124.634L255.658 126.827L252.39 121.113C252.39 121.113 248.218 121.332 248.218 118.233C248.218 115.133 244.389 115.054 244.389 115.054C244.389 115.054 238.965 105.6 250.194 108.092C250.194 108.092 257.98 102.761 261.855 107.319C261.855 107.319 273.728 113.291 270.329 123.69L264.685 134.409L263.405 131.983C263.405 131.983 264.178 121.794 257.464 124.634Z" fill="#0B0F19"/>
<path d="M269.271 325.313H258.678V340.326H269.271V325.313Z" fill="#B1B4B8"/>
<path d="M248.359 349.41C247.246 349.41 246.254 349.385 245.504 349.314C242.693 349.057 240.005 346.98 238.652 345.767C238.357 345.501 238.152 345.15 238.065 344.763C237.978 344.375 238.013 343.97 238.167 343.604C238.277 343.34 238.446 343.104 238.661 342.914C238.875 342.724 239.13 342.585 239.406 342.507L246.843 340.385L258.883 332.27L259.02 332.512C259.676 333.677 260.221 334.9 260.649 336.165C260.728 336.386 260.759 336.622 260.739 336.855C260.719 337.089 260.649 337.316 260.532 337.52C260.395 337.724 260.202 337.886 259.976 337.985C260.196 338.212 260.876 338.677 262.981 339.01C266.052 339.495 266.699 336.317 266.725 336.186L266.745 336.079L266.836 336.019C268.298 335.079 269.198 334.65 269.507 334.741C269.7 334.796 270.023 334.897 270.899 343.553C271.323 344.9 271.42 346.328 271.182 347.72C270.732 349.792 261.666 349.08 259.85 348.918C259.8 348.923 253.011 349.408 248.362 349.408L248.359 349.41Z" fill="#0B0F19"/>
<path d="M291.717 302.81L283.549 309.55L293.124 321.124L301.291 314.384L291.717 302.81Z" fill="#B1B4B8"/>
<path d="M290.98 334.671C290.12 335.379 289.341 335.99 288.724 336.414C286.391 338.006 282.997 338.117 281.186 338.041C280.788 338.024 280.406 337.884 280.091 337.641C279.776 337.397 279.545 337.062 279.429 336.682C279.346 336.407 279.326 336.118 279.369 335.834C279.413 335.551 279.52 335.281 279.682 335.044L284.058 328.673L288.156 314.757L288.414 314.858C289.662 315.338 290.863 315.934 292.001 316.636C292.202 316.756 292.376 316.918 292.51 317.11C292.643 317.303 292.733 317.523 292.774 317.753C292.801 318 292.755 318.249 292.643 318.471C292.956 318.507 293.776 318.431 295.612 317.349C298.288 315.773 296.761 312.908 296.69 312.787L296.639 312.691L296.669 312.59C297.196 310.933 297.615 310.033 297.914 309.907C298.101 309.826 298.409 309.695 304.607 315.814C305.796 316.58 306.783 317.619 307.485 318.846C308.462 320.732 301.02 325.955 299.518 326.981C299.482 327.016 294.56 331.71 290.978 334.671H290.98Z" fill="#0B0F19"/>
<path d="M241.159 209.547H277.497L269.424 329.517H257.312L241.164 209.547L241.159 209.547Z" fill="#0B0F19"/>
<path d="M248.561 216.157L241.159 209.548L244.858 275.528L286.245 314.844L296.566 306.33L272.45 275.078L248.561 216.157Z" fill="#0B0F19"/>
<path d="M252.467 142.038L265.192 137.202L271.153 147.144C278.236 159.514 278.265 172.773 276.529 186.92L277.498 209.547H241.159L252.467 142.038Z" fill="#FF5A1F"/>
<path d="M211.899 215.221C208.884 217.502 207.675 220.941 209.197 222.912C210.72 224.882 214.403 224.635 217.418 222.356C218.638 221.463 219.615 220.28 220.261 218.915L232.91 209.102L227.941 203.1L215.995 213.413C214.498 213.672 213.088 214.293 211.887 215.222H211.897L211.899 215.221Z" fill="#B1B4B8"/>
<path d="M216.932 210.522L241.013 186.122L255.395 158.569C256.087 157.243 257.044 156.072 258.206 155.129C259.368 154.187 260.712 153.492 262.153 153.088C263.595 152.684 265.104 152.58 266.588 152.781C268.071 152.983 269.498 153.486 270.779 154.26C272.06 155.033 273.169 156.061 274.037 157.279C274.905 158.498 275.514 159.881 275.826 161.343C276.138 162.806 276.147 164.317 275.851 165.783C275.556 167.249 274.963 168.639 274.108 169.867L253.422 199.578L253.391 199.622L221.742 218.237L216.937 210.516H216.931L216.932 210.522Z" fill="#FF5A1F"/>
<path d="M0.00284551 350.204C-0.0154295 350.395 0.0419305 350.585 0.162588 350.734C0.283246 350.882 0.457562 350.978 0.648042 351H322.354C322.537 350.961 322.701 350.861 322.818 350.716C322.936 350.571 323 350.39 323 350.204C323 350.017 322.936 349.837 322.818 349.692C322.701 349.547 322.537 349.447 322.354 349.408H0.648042C0.457562 349.43 0.283246 349.526 0.162588 349.674C0.0419305 349.823 -0.0154295 350.013 0.00284551 350.204Z" fill="#E3E3E3"/>
<path d="M200.095 83.0339H198.171V30.44C198.171 22.3668 194.96 14.6243 189.245 8.91568C183.529 3.20707 175.778 0 167.695 0H56.1358C48.0529 0 40.3011 3.20707 34.5856 8.91568C28.8701 14.6243 25.6592 22.3668 25.6592 30.44V318.969C25.6592 327.042 28.8701 334.785 34.5856 340.493C40.3011 346.202 48.0529 349.409 56.1358 349.409H167.695C175.778 349.409 183.529 346.202 189.245 340.493C194.96 334.785 198.171 327.042 198.171 318.969V120.466H200.095V83.0339Z" fill="#0B0F19"/>
<path d="M169.534 7.9248H56.2182C44.0898 7.9248 34.2578 17.745 34.2578 29.8588V319.388C34.2578 331.502 44.0898 341.322 56.2182 341.322H169.534C181.662 341.322 191.494 331.502 191.494 319.388V29.8588C191.494 17.745 181.662 7.9248 169.534 7.9248Z" fill="#F8FAFC"/>
<path d="M96.1863 11.4336H129.566C131.43 11.4336 133.217 12.1731 134.535 13.4894C135.853 14.8057 136.593 16.591 136.593 18.4525C136.593 20.314 135.853 22.0993 134.535 23.4156C133.217 24.7319 131.43 25.4714 129.566 25.4714H96.1863C94.3225 25.4714 92.5351 24.7319 91.2172 23.4156C89.8993 22.0993 89.1589 20.314 89.1589 18.4525C89.1589 16.591 89.8993 14.8057 91.2172 13.4894C92.5351 12.1731 94.3225 11.4336 96.1863 11.4336Z" fill="#0B0F19"/>
<path d="M64.124 39.5098H46.5557C45.5854 39.5098 44.7988 40.2954 44.7988 41.2645V58.8117C44.7988 59.7808 45.5854 60.5664 46.5557 60.5664H64.124C65.0942 60.5664 65.8808 59.7808 65.8808 58.8117V41.2645C65.8808 40.2954 65.0942 39.5098 64.124 39.5098Z" fill="#6D28D9"/>
<path fill-rule="evenodd" clip-rule="evenodd" d="M54.569 47.7433C54.569 47.2472 54.9757 47.052 55.6521 47.052C56.758 47.0759 57.8432 47.356 58.8223 47.8701V44.8722C57.8149 44.4751 56.7403 44.2762 55.6574 44.2865C53.063 44.2865 51.3408 45.6376 51.3408 47.896C51.3408 51.4159 56.1963 50.8566 56.1963 52.3762C56.1963 52.9619 55.6837 53.1518 54.9704 53.1518C53.7449 53.0856 52.5513 52.7369 51.4831 52.1332V55.1675C52.584 55.6444 53.7705 55.8922 54.9704 55.8957C57.6281 55.8957 59.4561 54.5797 59.4561 52.2986C59.4354 48.4978 54.569 49.1734 54.569 47.7433Z" fill="#F8FAFC"/>
<path d="M170.412 39.5098C172.497 39.5098 174.535 40.1272 176.269 41.2841C178.002 42.441 179.353 44.0853 180.151 46.0091C180.949 47.9329 181.157 50.0498 180.751 52.0921C180.344 54.1344 179.34 56.0103 177.866 57.4827C176.392 58.9552 174.514 59.9579 172.469 60.3641C170.424 60.7704 168.305 60.5619 166.378 59.765C164.452 58.9681 162.806 57.6187 161.648 55.8873C160.49 54.1559 159.871 52.1204 159.871 50.0381C159.871 47.2458 160.982 44.5679 162.959 42.5934C164.936 40.619 167.617 39.5098 170.412 39.5098Z" fill="#E3E3E3"/>
<path d="M48.3125 76.3584H74.2258C75.1576 76.3584 76.0513 76.7281 76.7103 77.3863C77.3692 78.0444 77.7394 78.9371 77.7394 79.8678V83.3773C77.7394 84.308 77.3692 85.2007 76.7103 85.8588C76.0513 86.517 75.1576 86.8867 74.2258 86.8867H48.3125C47.3806 86.8867 46.4869 86.517 45.828 85.8588C45.169 85.2007 44.7988 84.308 44.7988 83.3773V79.8678C44.7988 78.9371 45.169 78.0444 45.828 77.3863C46.4869 76.7281 47.3806 76.3584 48.3125 76.3584Z" fill="#FF5A1F"/>
<path d="M86.5237 76.3584H112.437C113.369 76.3584 114.263 76.7281 114.921 77.3863C115.58 78.0444 115.951 78.9371 115.951 79.8678V83.3773C115.951 84.308 115.58 85.2007 114.921 85.8588C114.263 86.517 113.369 86.8867 112.437 86.8867H86.5237C85.5918 86.8867 84.6981 86.517 84.0391 85.8588C83.3802 85.2007 83.01 84.308 83.01 83.3773V79.8678C83.01 78.9371 83.3802 78.0444 84.0391 77.3863C84.6981 76.7281 85.5918 76.3584 86.5237 76.3584Z" fill="#E3E3E3"/>
<path d="M124.735 76.3584H150.648C151.58 76.3584 152.473 76.7281 153.132 77.3863C153.791 78.0444 154.162 78.9371 154.162 79.8678V83.3773C154.162 84.308 153.791 85.2007 153.132 85.8588C152.473 86.517 151.58 86.8867 150.648 86.8867H124.735C123.803 86.8867 122.909 86.517 122.25 85.8588C121.591 85.2007 121.221 84.308 121.221 83.3773V79.8678C121.221 78.9371 121.591 78.0444 122.25 77.3863C122.909 76.7281 123.803 76.3584 124.735 76.3584Z" fill="#E3E3E3"/>
<path d="M162.946 76.3584H191.494V86.8867H162.946C162.014 86.8867 161.12 86.517 160.461 85.8588C159.802 85.2007 159.432 84.308 159.432 83.3773V79.8678C159.432 78.9371 159.802 78.0444 160.461 77.3863C161.12 76.7281 162.014 76.3584 162.946 76.3584Z" fill="#E3E3E3"/>
<path d="M48.3125 107.943H58.8535C59.7854 107.943 60.6791 108.313 61.338 108.971C61.997 109.629 62.3671 110.522 62.3671 111.453V121.981C62.3671 122.912 61.997 123.805 61.338 124.463C60.6791 125.121 59.7854 125.491 58.8535 125.491H48.3125C47.3806 125.491 46.4869 125.121 45.828 124.463C45.169 123.805 44.7988 122.912 44.7988 121.981V111.453C44.7988 110.522 45.169 109.629 45.828 108.971C46.4869 108.313 47.3806 107.943 48.3125 107.943Z" fill="#FF5A1F"/>
<path d="M52.4318 121.104C52.2861 121.104 52.1423 121.07 52.0119 121.005C51.8816 120.94 51.7682 120.845 51.6808 120.729L49.3784 117.663C49.3045 117.564 49.2506 117.452 49.2201 117.333C49.1895 117.213 49.1827 117.089 49.2001 116.967C49.2175 116.846 49.2589 116.728 49.3217 116.622C49.3845 116.516 49.4676 116.424 49.5662 116.35C49.6648 116.276 49.7771 116.222 49.8965 116.192C50.0159 116.161 50.1402 116.154 50.2622 116.172C50.3843 116.189 50.5017 116.23 50.6078 116.293C50.7139 116.356 50.8066 116.439 50.8805 116.537L52.3866 118.543L56.2551 112.748C56.3932 112.541 56.6079 112.397 56.8521 112.348C57.0962 112.3 57.3498 112.35 57.5569 112.488C57.7641 112.625 57.9079 112.84 57.9568 113.084C58.0056 113.328 57.9555 113.581 57.8174 113.788L53.2132 120.686C53.1299 120.811 53.0178 120.914 52.8865 120.986C52.7551 121.059 52.6082 121.099 52.4582 121.103L52.4318 121.104Z" fill="#F8FAFC"/>
<path d="M173.593 122.858V121.665C172.755 121.651 171.949 121.349 171.309 120.809C171.021 120.539 170.793 120.212 170.638 119.849C170.484 119.486 170.406 119.094 170.411 118.7H172.033C172.038 118.897 172.083 119.092 172.167 119.271C172.251 119.45 172.371 119.609 172.519 119.74C172.826 119.992 173.2 120.147 173.596 120.186V117.332L173.102 117.195C172.434 117.042 171.816 116.72 171.308 116.26C171.093 116.045 170.924 115.787 170.814 115.504C170.703 115.22 170.652 114.917 170.665 114.613C170.655 114.121 170.786 113.636 171.042 113.216C171.3 112.807 171.658 112.471 172.083 112.241C172.549 111.988 173.064 111.836 173.593 111.795V110.575H174.331V111.789C174.874 111.814 175.405 111.959 175.884 112.215C176.308 112.444 176.665 112.778 176.921 113.184C177.174 113.592 177.311 114.06 177.317 114.54H175.723C175.699 114.205 175.547 113.892 175.297 113.667C175.024 113.436 174.687 113.294 174.331 113.26V115.953L174.743 116.062C175.193 116.178 175.628 116.346 176.038 116.563C176.44 116.771 176.786 117.072 177.049 117.44C177.322 117.85 177.458 118.336 177.439 118.829C177.45 119.196 177.383 119.561 177.242 119.901C177.102 120.24 176.891 120.546 176.623 120.798C175.987 121.351 175.174 121.658 174.331 121.664V122.858H173.593ZM174.331 120.179C174.723 120.144 175.095 119.986 175.392 119.727C175.522 119.614 175.625 119.474 175.694 119.316C175.764 119.159 175.799 118.989 175.796 118.817C175.803 118.659 175.771 118.501 175.701 118.36C175.631 118.218 175.526 118.096 175.395 118.006C175.069 117.792 174.71 117.634 174.332 117.538L174.331 120.179ZM173.593 115.755V113.269C173.244 113.306 172.917 113.456 172.661 113.695C172.552 113.801 172.466 113.927 172.409 114.067C172.351 114.207 172.323 114.357 172.325 114.508C172.317 114.665 172.349 114.822 172.417 114.963C172.485 115.105 172.588 115.227 172.715 115.319C172.983 115.51 173.28 115.657 173.594 115.756L173.593 115.755Z" fill="#0B0F19"/>
<path d="M74.2258 111.453H151.966C152.897 111.453 153.791 111.823 154.45 112.481C155.109 113.139 155.479 114.032 155.479 114.963V118.472C155.479 119.403 155.109 120.295 154.45 120.954C153.791 121.612 152.897 121.981 151.966 121.981H74.2258C73.2939 121.981 72.4002 121.612 71.7413 120.954C71.0823 120.295 70.7122 119.403 70.7122 118.472V114.963C70.7122 114.032 71.0823 113.139 71.7413 112.481C72.4002 111.823 73.2939 111.453 74.2258 111.453Z" fill="#E3E3E3"/>
<path d="M74.2258 129H100.139C101.071 129 101.965 129.37 102.624 130.028C103.283 130.686 103.653 131.579 103.653 132.509V136.019C103.653 136.95 103.283 137.842 102.624 138.5C101.965 139.159 101.071 139.528 100.139 139.528H74.2258C73.2939 139.528 72.4002 139.159 71.7413 138.5C71.0823 137.842 70.7122 136.95 70.7122 136.019V132.509C70.7122 131.579 71.0823 130.686 71.7413 130.028C72.4002 129.37 73.2939 129 74.2258 129Z" fill="#E3E3E3"/>
<path d="M197.154 182.439H61V182H197.154V182.439Z" fill="#E3E3E3"/>
<path d="M48.3125 160.805H58.8535C59.7854 160.805 60.6791 161.174 61.338 161.833C61.997 162.491 62.3671 163.383 62.3671 164.314V174.842C62.3671 175.773 61.997 176.666 61.338 177.324C60.6791 177.982 59.7854 178.352 58.8535 178.352H48.3125C47.3806 178.352 46.4869 177.982 45.828 177.324C45.169 176.666 44.7988 175.773 44.7988 174.842V164.314C44.7988 163.383 45.169 162.491 45.828 161.833C46.4869 161.174 47.3806 160.805 48.3125 160.805Z" fill="#FF5A1F"/>
<path d="M52.4318 173.965C52.2861 173.965 52.1423 173.931 52.0119 173.866C51.8816 173.801 51.7682 173.706 51.6808 173.59L49.3784 170.524C49.3045 170.425 49.2506 170.313 49.2201 170.194C49.1895 170.075 49.1827 169.951 49.2001 169.829C49.2175 169.707 49.2589 169.59 49.3217 169.484C49.3845 169.378 49.4676 169.285 49.5662 169.211C49.6648 169.137 49.7771 169.084 49.8965 169.053C50.0159 169.022 50.1402 169.016 50.2622 169.033C50.3843 169.051 50.5017 169.092 50.6078 169.155C50.7139 169.217 50.8066 169.3 50.8805 169.399L52.3866 171.404L56.2551 165.609C56.3932 165.402 56.6079 165.258 56.8521 165.21C57.0962 165.161 57.3498 165.211 57.5569 165.349C57.7641 165.487 57.9079 165.701 57.9568 165.945C58.0056 166.189 57.9555 166.442 57.8174 166.649L53.2132 173.547C53.1299 173.672 53.0178 173.775 52.8865 173.848C52.7551 173.92 52.6082 173.96 52.4582 173.965L52.4318 173.965Z" fill="#F8FAFC"/>
<path d="M173.593 175.72V174.526C172.755 174.512 171.949 174.21 171.309 173.67C171.021 173.4 170.793 173.073 170.638 172.71C170.484 172.347 170.406 171.956 170.411 171.561H172.033C172.038 171.759 172.083 171.953 172.167 172.132C172.251 172.311 172.371 172.471 172.519 172.601C172.826 172.853 173.2 173.009 173.596 173.048V170.193L173.102 170.057C172.434 169.903 171.816 169.581 171.308 169.121C171.093 168.906 170.924 168.649 170.814 168.365C170.703 168.082 170.652 167.779 170.665 167.475C170.655 166.982 170.786 166.497 171.042 166.077C171.3 165.668 171.658 165.332 172.083 165.103C172.549 164.849 173.064 164.697 173.593 164.656V163.437H174.331V164.651C174.874 164.675 175.405 164.821 175.884 165.077C176.308 165.305 176.665 165.639 176.921 166.045C177.174 166.453 177.311 166.922 177.317 167.401H175.723C175.699 167.066 175.547 166.753 175.297 166.528C175.024 166.297 174.687 166.155 174.331 166.122V168.814L174.743 168.924C175.193 169.039 175.628 169.207 176.038 169.424C176.44 169.632 176.786 169.933 177.049 170.301C177.322 170.712 177.458 171.198 177.439 171.69C177.45 172.057 177.383 172.422 177.242 172.762C177.102 173.101 176.891 173.407 176.623 173.66C175.987 174.213 175.174 174.52 174.331 174.525V175.72H173.593ZM174.331 173.041C174.723 173.005 175.095 172.847 175.392 172.589C175.522 172.475 175.625 172.335 175.694 172.178C175.764 172.02 175.799 171.85 175.796 171.678C175.803 171.52 175.771 171.363 175.701 171.221C175.631 171.079 175.526 170.957 175.395 170.867C175.069 170.653 174.71 170.495 174.332 170.399L174.331 173.041ZM173.593 168.616V166.13C173.244 166.168 172.917 166.317 172.661 166.556C172.552 166.662 172.466 166.789 172.409 166.928C172.351 167.068 172.323 167.219 172.325 167.37C172.317 167.527 172.349 167.683 172.417 167.825C172.485 167.966 172.588 168.089 172.715 168.18C172.983 168.371 173.28 168.519 173.594 168.617L173.593 168.616Z" fill="#0B0F19"/>
<path d="M74.2258 164.313H151.966C152.897 164.313 153.791 164.683 154.45 165.341C155.109 166 155.479 166.892 155.479 167.823V171.332C155.479 172.263 155.109 173.156 154.45 173.814C153.791 174.472 152.897 174.842 151.966 174.842H74.2258C73.2939 174.842 72.4002 174.472 71.7413 173.814C71.0823 173.156 70.7122 172.263 70.7122 171.332V167.823C70.7122 166.892 71.0823 166 71.7413 165.341C72.4002 164.683 73.2939 164.313 74.2258 164.313Z" fill="#E3E3E3"/>
<path d="M74.2258 181.861H100.139C101.071 181.861 101.965 182.231 102.624 182.889C103.283 183.547 103.653 184.44 103.653 185.371V188.88C103.653 189.811 103.283 190.704 102.624 191.362C101.965 192.02 101.071 192.39 100.139 192.39H74.2258C73.2939 192.39 72.4002 192.02 71.7413 191.362C71.0823 190.704 70.7122 189.811 70.7122 188.88V185.371C70.7122 184.44 71.0823 183.547 71.7413 182.889C72.4002 182.231 73.2939 181.861 74.2258 181.861Z" fill="#E3E3E3"/>
<path d="M180.953 203.137H44.7988V202.698H180.953V203.137Z" fill="#E3E3E3"/>
<path d="M48.3125 213.665H58.8535C59.7854 213.665 60.6791 214.035 61.338 214.693C61.997 215.351 62.3671 216.244 62.3671 217.174V227.703C62.3671 228.634 61.997 229.526 61.338 230.184C60.6791 230.843 59.7854 231.212 58.8535 231.212H48.3125C47.3806 231.212 46.4869 230.843 45.828 230.184C45.169 229.526 44.7988 228.634 44.7988 227.703V217.174C44.7988 216.244 45.169 215.351 45.828 214.693C46.4869 214.035 47.3806 213.665 48.3125 213.665Z" fill="#FF5A1F"/>
<path d="M52.4318 226.825C52.2861 226.825 52.1423 226.791 52.0119 226.726C51.8816 226.661 51.7682 226.567 51.6808 226.45L49.3784 223.384C49.3045 223.286 49.2506 223.174 49.2201 223.054C49.1895 222.935 49.1827 222.811 49.2001 222.689C49.2175 222.567 49.2589 222.45 49.3217 222.344C49.3845 222.238 49.4676 222.145 49.5662 222.072C49.6648 221.998 49.7771 221.944 49.8965 221.913C50.0159 221.883 50.1402 221.876 50.2622 221.893C50.3843 221.911 50.5017 221.952 50.6078 222.015C50.7139 222.078 50.8066 222.161 50.8805 222.259L52.3866 224.265L56.2551 218.469C56.3932 218.262 56.6079 218.119 56.8521 218.07C57.0962 218.021 57.3498 218.071 57.5569 218.209C57.7641 218.347 57.9079 218.562 57.9568 218.805C58.0056 219.049 57.9555 219.303 57.8174 219.509L53.2132 226.408C53.1299 226.532 53.0178 226.635 52.8865 226.708C52.7551 226.781 52.6082 226.821 52.4582 226.825L52.4318 226.825Z" fill="#F8FAFC"/>
<path d="M173.593 228.58V227.387C172.755 227.373 171.949 227.07 171.309 226.531C171.021 226.261 170.793 225.934 170.638 225.57C170.484 225.207 170.406 224.816 170.411 224.422H172.033C172.038 224.619 172.083 224.813 172.167 224.992C172.251 225.171 172.371 225.331 172.519 225.461C172.826 225.714 173.2 225.869 173.596 225.908V223.053L173.102 222.917C172.434 222.763 171.816 222.441 171.308 221.981C171.093 221.766 170.924 221.509 170.814 221.226C170.703 220.942 170.652 220.639 170.665 220.335C170.655 219.843 170.786 219.358 171.042 218.937C171.3 218.528 171.658 218.193 172.083 217.963C172.549 217.71 173.064 217.558 173.593 217.516V216.297H174.331V217.511C174.874 217.535 175.405 217.681 175.884 217.937C176.308 218.166 176.665 218.499 176.921 218.906C177.174 219.313 177.311 219.782 177.317 220.262H175.723C175.699 219.927 175.547 219.614 175.297 219.389C175.024 219.158 174.687 219.016 174.331 218.982V221.675L174.743 221.784C175.193 221.9 175.628 222.068 176.038 222.284C176.44 222.493 176.786 222.793 177.049 223.162C177.322 223.572 177.458 224.058 177.439 224.55C177.45 224.917 177.383 225.283 177.242 225.622C177.102 225.962 176.891 226.268 176.623 226.52C175.987 227.073 175.174 227.38 174.331 227.385V228.58H173.593ZM174.331 225.901C174.723 225.865 175.095 225.707 175.392 225.449C175.522 225.336 175.625 225.195 175.694 225.038C175.764 224.881 175.799 224.71 175.796 224.538C175.803 224.38 175.771 224.223 175.701 224.081C175.631 223.939 175.526 223.818 175.395 223.728C175.069 223.514 174.71 223.356 174.332 223.26L174.331 225.901ZM173.593 221.477V218.991C173.244 219.028 172.917 219.178 172.661 219.417C172.552 219.522 172.466 219.649 172.409 219.789C172.351 219.929 172.323 220.079 172.325 220.23C172.317 220.387 172.349 220.544 172.417 220.685C172.485 220.827 172.588 220.949 172.715 221.041C172.983 221.232 173.28 221.379 173.594 221.477L173.593 221.477Z" fill="#0B0F19"/>
<path d="M74.2258 217.175H151.966C152.897 217.175 153.791 217.545 154.45 218.203C155.109 218.861 155.479 219.753 155.479 220.684V224.194C155.479 225.124 155.109 226.017 154.45 226.675C153.791 227.333 152.897 227.703 151.966 227.703H74.2258C73.2939 227.703 72.4002 227.333 71.7413 226.675C71.0823 226.017 70.7122 225.124 70.7122 224.194V220.684C70.7122 219.753 71.0823 218.861 71.7413 218.203C72.4002 217.545 73.2939 217.175 74.2258 217.175Z" fill="#E3E3E3"/>
<path d="M74.2258 234.722H100.139C101.071 234.722 101.965 235.091 102.624 235.75C103.283 236.408 103.653 237.3 103.653 238.231V241.741C103.653 242.671 103.283 243.564 102.624 244.222C101.965 244.88 101.071 245.25 100.139 245.25H74.2258C73.2939 245.25 72.4002 244.88 71.7413 244.222C71.0823 243.564 70.7122 242.671 70.7122 241.741V238.231C70.7122 237.3 71.0823 236.408 71.7413 235.75C72.4002 235.091 73.2939 234.722 74.2258 234.722Z" fill="#E3E3E3"/>
<path d="M180.953 255.998H44.7988V255.56H180.953V255.998Z" fill="#E3E3E3"/>
<path d="M48.3125 268.062H177.44C178.371 268.062 179.265 268.431 179.924 269.089C180.583 269.748 180.953 270.64 180.953 271.571V320.703C180.953 321.634 180.583 322.527 179.924 323.185C179.265 323.843 178.371 324.213 177.44 324.213H48.3125C47.3806 324.213 46.4869 323.843 45.828 323.185C45.169 322.527 44.7988 321.634 44.7988 320.703V271.571C44.7988 270.64 45.169 269.748 45.828 269.089C46.4869 268.431 47.3806 268.062 48.3125 268.062Z" fill="#E3E3E3"/>
<path d="M160.573 281.67C161.849 281.67 162.884 280.637 162.884 279.362C162.884 278.088 161.849 277.055 160.573 277.055C159.298 277.055 158.263 278.088 158.263 279.362C158.263 280.637 159.298 281.67 160.573 281.67Z" fill="#0B0F19"/>
<path d="M160.325 279.362L160.597 279.634L146.792 293.423L142.46 289.095L134.855 296.692L125.517 287.366L109.634 303.23L102.414 296.019L86.6265 311.788L77.7703 302.942L61.5416 319.151L61.2693 318.88L77.7703 302.398L86.627 311.244L102.414 295.476L109.634 302.687L125.517 286.823L134.855 296.149L142.46 288.553L146.792 292.88L160.325 279.362Z" fill="#0B0F19"/>
<path d="M124.843 289.69C126.119 289.69 127.153 288.657 127.153 287.383C127.153 286.108 126.119 285.075 124.843 285.075C123.567 285.075 122.533 286.108 122.533 287.383C122.533 288.657 123.567 289.69 124.843 289.69Z" fill="#0B0F19"/>
<path d="M77.8661 304.882C79.142 304.882 80.1764 303.848 80.1764 302.574C80.1764 301.3 79.142 300.267 77.8661 300.267C76.5902 300.267 75.5559 301.3 75.5559 302.574C75.5559 303.848 76.5902 304.882 77.8661 304.882Z" fill="#0B0F19"/>
</g>
<defs>
<clipPath id="clip0_584_1768">
<rect width="323" height="351" fill="white"/>
</clipPath>
</defs>
</svg>
